Love for All and Sharing is the first step to solving all the problems of humanity.

Websites I want to share.

    
http://www.shareintl.org/

    
http://www.lightmiddleway.com


Thank you very much

No credit for me...credit to EVERYONE for sharing
 
http://thepiratebay.org/user/raymondhome/

Duration : 1h 48mn
Video
ID : 0
Format : MPEG-4 Visual
Format profile : AdvancedSimple@L5
Format settings, BVOP : Yes
Format settings, QPel : No
Format settings, GMC : No warppoints
Format settings, Matrix : Default (H.263)
Muxing mode : Packed bitstream
Codec ID : XVID
Codec ID/Hint : XviD
Duration : 1h 48mn
Bit rate : 692 Kbps
Width : 640 pixels
Height : 272 pixels
Display aspect ratio : 2.35:1
Frame rate : 23.976 fps
Resolution : 24 bits
Colorimetry : 4:2:0
Scan type : Progressive
Bits/(Pixel*Frame) : 0.166
Stream size : 538 MiB (76%)
Writing library : XviD 1.2.1 (UTC 2008-12-04)
Audio
ID : 1
Format : MPEG Audio
Format version : Version 1
Format profile : Layer 3
Codec ID : 55
Codec ID/Hint : MP3
Duration : 1h 48mn
Bit rate mode : Variable
Bit rate : 201 Kbps
Channel(s) : 2 channels
Sampling rate : 48.0 KHz
Resolution : 16 bits
Stream size : 156 MiB (22%)
Alignment : Aligned on interleaves
Interleave, duration : 24 ms (0.58 video frame)
Interleave, preload duration : 572 ms

video source from :ELEKTRI4KA
Audio from : Greenfrogr
Encoder: ghostman

credit ghostman BIG TIME & to all the people who made it possible for me to share this with everyone

*****help what we can with haiti...the world is ONE big family*****